HIERARCHY
ROOT Hips
{
	OFFSET	0.00	0.00	0.00
	CHANNELS 6 Xposition Yposition Zposition Zrotation Xrotation Yrotation
	JOINT Spine
	{
		OFFSET	 0.00	0.01	 0.00
		CHANNELS 3 Zrotation Xrotation Yrotation
		JOINT Spine1
		{
			OFFSET	 0.00	 2.45913012437421	 0.00
			CHANNELS 3 Zrotation Xrotation Yrotation
            JOINT Neck
            {
                OFFSET	 0.00	 2.48462964506057	 0.00
                CHANNELS 3 Zrotation Xrotation Yrotation
                JOINT Head
                {
                    OFFSET	 0.00	 0.927524780924562	 0.00
                    CHANNELS 3 Zrotation Xrotation Yrotation
                    End Site 
                    {
                        OFFSET	 0.00	 1.14999962169752	 0.00
                    }
                }
            }
			JOINT LeftShoulder
			{
				OFFSET	 0.00	 2.48462964506057	 0.00
				CHANNELS 3 Zrotation Xrotation Yrotation
				JOINT LeftUpArm
				{
					OFFSET	 0.00	 1.24881979654096	 0.00
					CHANNELS 3 Zrotation Xrotation Yrotation
					JOINT LeftForeArm
					{
						OFFSET	 0.00	2.59758046908119	 0.00
						CHANNELS 3 Zrotation Xrotation Yrotation
						JOINT LeftHand
						{
							OFFSET	 0.00	2.45542024364365	 0.00
							CHANNELS 3 Zrotation Xrotation Yrotation
							JOINT LeftHandThumb 
							{
								OFFSET	 0.00	0.00	 0.00
								CHANNELS 3 Zrotation Xrotation Yrotation
								End Site
								{
									OFFSET	 0.00	0.00	1.00000003353624
								}
							}
							JOINT L_Wrist_End 
							{
								OFFSET	 0.00	0.99999967115358	 0.00
								CHANNELS 3 Zrotation Xrotation Yrotation
								End Site 
								{
									OFFSET	 0.00	 0.00	 0.00
								}
							}
						}
					}
				}
			}
			JOINT RightShoulder
			{
				OFFSET	 0.00	 2.48462964506057	 0.00
				CHANNELS 3 Zrotation Xrotation Yrotation
				JOINT RightUpArm
				{
					OFFSET	 0.00	 1.24881979654096	 0.00
					CHANNELS 3 Zrotation Xrotation Yrotation
					JOINT RightForeArm
					{
						OFFSET	 0.00	2.59758046908119	 0.00
						CHANNELS 3 Zrotation Xrotation Yrotation
						JOINT RightHand
						{
							OFFSET	 0.00	2.45542024364365	 0.00
							CHANNELS 3 Zrotation Xrotation Yrotation
							JOINT RightHandThumb 
							{
								OFFSET	 0.00	0.00	 0.00
								CHANNELS 3 Zrotation Xrotation Yrotation
								End Site
								{
									OFFSET	 0.00	0.00	1.00000003353624
								}
							}
							JOINT R_Wrist_End 
							{
								OFFSET	 0.00	0.99999967115358	 0.00
								CHANNELS 3 Zrotation Xrotation Yrotation
								End Site 
								{
									OFFSET	 0.00	 0.00	 0.00
								}
							}
						}
					}
				}
			}
		}
	}
	JOINT LeftUpLeg
	{
		OFFSET	 1.2719394002717	 0.00	 0.00
		CHANNELS 3 Zrotation Xrotation Yrotation
		JOINT LeftLowLeg
		{
			OFFSET	 0.00	-4.3429100912261	 0.00
			CHANNELS 3 Zrotation Xrotation Yrotation
			JOINT LeftFoot
			{
				OFFSET	 0.00	-4.48767017425826	 0.00
				CHANNELS 3 Zrotation Xrotation Yrotation
				JOINT LeftToeBase
                {
                    OFFSET	 0.00	0.00	 1.51507020887566
                    CHANNELS 3 Zrotation Xrotation Yrotation
                    End Site 
                    {
                        OFFSET	 0.00	0.00	 0.75000010571191
                    }
                }
			}
		}
	}
	JOINT RightUpLeg
	{
		OFFSET	 -1.2719393604653	 0.00	 0.00
		CHANNELS 3 Zrotation Xrotation Yrotation
		JOINT RightLowLeg
		{
			OFFSET	 0.00	-4.3429100912261	 0.00
			CHANNELS 3 Zrotation Xrotation Yrotation
			JOINT RightFoot
			{
				OFFSET	 0.00	-4.48767017425826	 0.00
				CHANNELS 3 Zrotation Xrotation Yrotation
				JOINT RightToeBase
                {
                    OFFSET	 0.00	0.00	 1.51507020887566
                    CHANNELS 3 Zrotation Xrotation Yrotation
                    End Site 
                    {
                        OFFSET	 0.00	0.00	 0.749999965609858
                    }
                }   
			}
		}
	}
}
MOTION 
Frames:	16 
Frame Time: 0.02 
  9.82802978515625 -5.247689819335937 9.245800170898438 7.70718 80.7441 -207.051 8.22392 -13.6866 6.06352 -3.57342 9.1935 1.46454 -2.86836 27.4596 -53.8156 67.2777 -39.4568 99.9863 -112.3699 -1.4366 4.31735 -51.6241 -7.11928 -350.846 0.0 108.641 0.0 -53.9445 2.03397 -96.073 0.0 0.0 0.0 0.0 0.0 0.0 117.8898 -0.525193 -5.5712 52.5735 9.97017 3.78145 0.0 145.089 0.0 -47.1382 17.6034 -2.53335 0.0 0.0 0.0 0.0 0.0 0.0 -6.46613 -30.5008 -11.2438 0.0 8.37465 0.0 -8.16517 -2.143999 10.013 0.0 -11.59651 0.0 12.1355 -1.18869 383.137 0.0 17.8249 0.0 0.166244 -8.4622 -25.6772 0.0 -19.98263 0.0 
  9.905079956054687 -5.110459899902343 9.215280151367187 5.55511 80.7363 -205.024 8.0407 -13.8625 6.31926 -4.01735 9.1576 1.86198 -3.46554 27.5319 -53.1209 67.0392 -39.3341 99.8238 -112.3563 -1.40271 4.31285 -51.6041 -7.1791 -350.942 0.0 108.784 0.0 -53.8537 2.02188 -96.2196 0.0 0.0 0.0 0.0 0.0 0.0 118.069 -0.483673 -5.82642 52.4543 9.82137 3.89527 0.0 145.138 0.0 -47.0376 17.4334 -2.47334 0.0 0.0 0.0 0.0 0.0 0.0 -6.25484 -30.1358 -10.7906 0.0 4.35615 0.0 -10.1309 -1.7049999 7.92291 0.0 -11.46035 0.0 11.9226 -0.269664 383.047 0.0 17.7217 0.0 0.0170359 -9.2355995 -25.4272 0.0 -20.0169 0.0 
  9.982750244140625 -4.965180053710937 9.185460205078124 3.17736 80.5297 -202.643 7.85625 -14.3131 6.43567 -4.46249 9.1101 2.13987 -4.06933 27.6163 -52.3622 66.662 -39.142 99.6336 -112.3514 -1.4406 4.1641 -51.5898 -7.32363 -350.99 0.0 108.836 0.0 -53.5325 2.18698 -96.4169 0.0 0.0 0.0 0.0 0.0 0.0 118.2321 -0.335704 -6.05362 52.3288 9.57127 3.93824 0.0 145.113 0.0 -47.04 17.5132 -2.48304 0.0 0.0 0.0 0.0 0.0 0.0 -6.25957 -30.1869 -9.44795 0.0 1.69999 0.0 -12.4317 -1.5664997 5.54264 0.0 -11.50735 0.0 11.7434 0.533668 382.963 0.0 17.5585 0.0 -0.220782 -9.7897 -25.3647 0.0 -20.24138 0.0 
  10.056799926757812 -4.818009948730468 9.154320068359375 0.864682 80.2156 -200.112 7.70357 -14.6812 6.5066 -4.98867 8.76323 2.25794 -4.49068 27.5809 -51.7861 65.9779 -38.9144 99.3639 -112.3677 -1.47315 3.98147 -51.431 -7.5323 -350.826 0.0 108.943 0.0 -53.7885 2.09671 -96.3133 0.0 0.0 0.0 0.0 0.0 0.0 118.3836 -0.313316 -6.16954 52.2576 9.29994 3.97348 0.0 145.164 0.0 -46.8571 17.3232 -2.43729 0.0 0.0 0.0 0.0 0.0 0.0 -6.57315 -30.8054 -7.80687 0.0 0.949531 0.0 -15.2239 -1.5792999 3.22814 0.0 -11.50422 0.0 11.5877 1.24416 382.751 0.0 17.3964 0.0 -0.382901 -10.312401 -25.3637 0.0 -20.51766 0.0 
  10.130900268554688 -4.659530029296875 9.123590087890625 -2.36725 79.9419 -196.7 7.29736 -15.0294 6.58062 -5.36053 8.13022 2.54822 -5.15969 27.878 -51.0222 65.4063 -38.7128 98.9893 -112.4691 -1.36568 4.09541 -51.2186 -7.62892 -350.637 0.0 108.935 0.0 -53.8391 2.23416 -96.3511 0.0 0.0 0.0 0.0 0.0 0.0 118.3947 -0.503357 -6.20944 52.2629 8.9347 4.01789 0.0 145.185 0.0 -46.7242 17.3848 -2.24887 0.0 0.0 0.0 0.0 0.0 0.0 -7.13785 -31.7352 -5.76424 0.0 1.89441 0.0 -15.662 -1.4134007 1.42529 0.0 -11.56303 0.0 11.2143 2.00194 382.579 0.0 17.3125 0.0 -0.333764 -10.908501 -25.178 0.0 -20.80697 0.0 
  10.2047998046875 -4.491669921875 9.09655029296875 -4.27543 79.6096 -194.476 7.28225 -15.758 6.62119 -6.02721 8.18331 2.64163 -5.6417 27.8004 -50.3708 64.9214 -38.5036 98.8185 -112.475 -1.37786 3.88328 -50.9435 -7.61409 -350.347 0.0 108.927 0.0 -53.7625 2.17416 -96.1485 0.0 0.0 0.0 0.0 0.0 0.0 118.4936 -0.415764 -6.09168 52.3161 8.70341 4.09325 0.0 145.263 0.0 -46.5384 17.1797 -1.99116 0.0 0.0 0.0 0.0 0.0 0.0 -7.60356 -32.8373 -4.72413 0.0 4.08939 0.0 -13.1153 -1.6285992 1.4462 0.0 -11.64841 0.0 11.0042 2.83585 382.191 0.0 17.1703 0.0 -0.089574 -11.1266 -24.8126 0.0 -21.44039 0.0 
  10.282099609375 -4.3130099487304685 9.071179809570312 -5.78426 79.3975 -192.849 7.25719 -16.4052 6.76978 -6.56766 8.19344 2.88151 -6.10204 27.7977 -49.7897 64.3952 -38.3401 98.754 -112.5069 -1.40173 3.80791 -50.6486 -7.46495 -350.006 0.0 108.864 0.0 -53.7327 2.04597 -96.1671 0.0 0.0 0.0 0.0 0.0 0.0 118.506 -0.448331 -6.09824 52.4308 8.62123 4.17707 0.0 145.241 0.0 -46.5344 17.2231 -1.99818 0.0 0.0 0.0 0.0 0.0 0.0 -7.91471 -33.5986 -4.51546 0.0 6.62848 0.0 -11.0795 -2.275299 2.51294 0.0 -11.85681 0.0 10.8151 3.78168 381.764 0.0 17.1912 0.0 0.405013 -11.1497 -24.1374 0.0 -22.39179 0.0 
  10.36 -4.124939880371094 9.049039916992188 -8.01575 79.1001 -190.783 7.13809 -17.1391 6.97371 -7.04659 7.97875 3.25458 -6.5788 28.0994 -49.1698 64.0498 -38.1609 98.8667 -112.5785 -1.43591 3.63519 -50.3119 -7.54373 -349.536 0.0 108.804 0.0 -54.1226 2.0689 -96.5726 0.0 0.0 0.0 0.0 0.0 0.0 118.5187 -0.330495 -6.14395 52.5214 8.42024 4.37326 0.0 145.224 0.0 -46.4345 17.0352 -1.85157 0.0 0.0 0.0 0.0 0.0 0.0 -8.28146 -34.1301 -5.14363 0.0 9.21276 0.0 -9.90002 -2.900999 4.24315 0.0 -12.61558 0.0 10.4818 4.54257 381.444 0.0 17.4685 0.0 1.15095 -11.0562 -23.1394 0.0 -23.65617 0.0 
  10.438499755859375 -3.9240301513671874 9.028920288085937 -10.3356 78.8931 -188.848 7.01168 -17.669 7.35595 -7.54632 7.36923 3.73372 -7.01853 28.7035 -48.5492 63.8408 -37.9047 98.9019 -112.5443 -1.4745 3.49555 -50.0849 -7.8156 -348.922 0.0 108.761 0.0 -54.1087 1.78143 -96.4214 0.0 0.0 0.0 0.0 0.0 0.0 118.634796 -0.475069 -6.3776 52.4474 8.36007 4.61777 0.0 145.112 0.0 -46.4193 17.1791 -1.6489 0.0 0.0 0.0 0.0 0.0 0.0 -8.6804 -34.1314 -5.90447 0.0 11.3744 0.0 -8.34703 -3.2374 6.11991 0.0 -13.40459 0.0 10.0296 5.29456 380.799 0.0 18.0613 0.0 1.99206 -10.7411995 -21.6436 0.0 -24.54225 0.0 
  10.513299560546875 -3.7163299560546874 9.015170288085937 -13.6503 78.7611 -186.118 6.94882 -18.1714 7.81935 -8.33902 6.59313 4.16475 -7.60202 29.7999 -47.6995 63.9499 -37.5287 98.928 -112.5316 -1.50195 3.2857 -49.7232 -8.37571 -348.452 0.0 108.825 0.0 -54.2363 1.66971 -96.8859 0.0 0.0 0.0 0.0 0.0 0.0 119.0062 -0.267131 -6.57557 52.1415 8.10561 4.93743 0.0 145.064 0.0 -46.2554 17.0705 -1.62624 0.0 0.0 0.0 0.0 0.0 0.0 -9.26891 -33.6702 -6.51746 0.0 12.3907 0.0 -9.4953 -2.269699 7.52684 0.0 -12.97602 0.0 9.26121 5.8076 379.785 0.0 19.2079 0.0 3.32967 -10.360901 -19.2894 0.0 -26.758701 0.0 
  10.5772998046875 -3.5077801513671876 9.016300048828125 -18.458 78.7101 -181.623 6.88314 -18.2743 8.3619 -9.77843 5.36858 4.39526 -7.66995 31.1129 -47.3255 64.0664 -37.0704 99.0885 -112.6536 -1.53344 3.09502 -48.8753 -8.99351 -347.896 0.0 108.91 0.0 -54.255 1.64333 -97.4476 0.0 0.0 0.0 0.0 0.0 0.0 119.9712 -0.288552 -6.86163 51.3544 7.98251 5.47675 0.0 144.883 0.0 -46.1525 17.4273 -1.50094 0.0 0.0 0.0 0.0 0.0 0.0 -10.6482 -32.9649 -9.54836 0.0 12.8136 0.0 -7.07354 -0.10470009 11.9594 0.0 -12.90047 0.0 8.13683 5.98458 378.254 0.0 21.0665 0.0 4.81568 -9.4935 -16.4283 0.0 -29.0098 0.0 
  10.643599853515624 -3.294570007324219 9.030029907226563 -24.1755 78.762 -175.676 6.50647 -18.2491 8.6062 -11.3835 4.13974 4.45201 -7.66849 32.2236 -46.9111 63.5424 -36.3888 98.7293 -112.7262 -1.5256 2.83682 -47.92 -9.64091 -347.202 0.0 108.969 0.0 -54.6421 1.5709 -97.3525 0.0 0.0 0.0 0.0 0.0 0.0 120.9648 -0.473116 -7.02 50.6313 7.88395 5.8362 0.0 144.712 0.0 -46.0676 17.7587 -0.981834 0.0 0.0 0.0 0.0 0.0 0.0 -12.5446 -32.2691 -13.2924 0.0 14.4237 0.0 -5.60416 0.8139 15.4835 0.0 -13.09094 0.0 7.041 6.0327 376.71 0.0 23.5062 0.0 6.5899 -8.0858 -14.1429 0.0 -32.336098 0.0 
  10.713399658203125 -3.082550048828125 9.051010131835938 -29.7405 78.8048 -169.59 5.83308 -18.1846 8.57557 -12.5996 2.97457 4.4583 -7.22161 32.9651 -47.1958 62.6047 -35.9033 98.2314 -112.7535 -1.5336 2.87608 -47.1936 -9.88146 -346.771 0.0 109.071 0.0 -55.2566 0.871789 -97.8037 0.0 0.0 0.0 0.0 0.0 0.0 121.395996 -0.772671 -7.04406 50.4399 7.71827 5.88872 0.0 144.781 0.0 -45.7244 17.6328 -0.669643 0.0 0.0 0.0 0.0 0.0 0.0 -14.5666 -31.5238 -16.983 0.0 16.3549 0.0 -4.88412 1.7101002 17.2057 0.0 -13.03271 0.0 6.12559 5.76882 375.037 0.0 26.5829 0.0 8.64803 -5.900299 -12.0278 0.0 -36.8612 0.0 
  10.788699951171875 -2.8696600341796876 9.07843994140625 -33.4536 78.9608 -165.721 5.2591 -18.1889 8.63462 -13.1396 2.15047 4.6877 -7.02387 33.5917 -47.3513 61.7242 -35.6108 97.8975 -112.6768 -1.61514 2.93227 -46.9916 -9.84121 -346.523 0.0 109.236 0.0 -55.6398 -0.494642 -98.8697 0.0 0.0 0.0 0.0 0.0 0.0 121.1262 -1.14606 -6.83861 50.7725 7.67195 5.57872 0.0 144.837 0.0 -45.5472 17.7855 -0.359154 0.0 0.0 0.0 0.0 0.0 0.0 -15.7873 -30.5584 -19.4785 0.0 18.071 0.0 -4.05563 2.1822004 17.5965 0.0 -12.66701 0.0 5.548 5.12387 373.638 0.0 30.2452 0.0 10.3892 -2.3446007 -10.0529 0.0 -41.4497 0.0 
  10.86280029296875 -2.663299865722656 9.10656982421875 -35.344 79.242 -163.561 4.83718 -18.1338 8.66771 -13.2871 1.49509 4.82333 -7.01437 34.0364 -47.3693 60.9045 -35.4193 97.5642 -112.3323 -1.5925 2.97931 -47.4088 -9.82631 -346.369 0.0 109.529 0.0 -56.1631 -2.22481 -99.368 0.0 0.0 0.0 0.0 0.0 0.0 120.2493 -1.46018 -6.55078 51.5963 7.5612 4.8998 0.0 144.927 0.0 -46.7947 19.0114 -4.53126 0.0 0.0 0.0 0.0 0.0 0.0 -16.3908 -29.1052 -20.7982 0.0 18.7701 0.0 -2.38384 2.7401 17.9369 0.0 -12.58035 0.0 5.24207 4.04737 372.166 0.0 34.4148 0.0 12.1333 2.0554 -7.77034 0.0 -45.6808 0.0 
  10.9243994140625 -2.4734800720214842 9.134210205078125 -38.73 79.5663 -160.77 4.66828 -17.9 8.99373 -13.928 1.25797 5.26016 -6.20159 33.9304 -47.9043 60.3868 -35.0895 98.0669 -111.9765 -1.24423 2.96283 -47.7099 -10.0619 -337.359 0.0 118.32 0.0 -19.0416 -49.5712 -63.6142 0.0 0.0 0.0 0.0 0.0 0.0 119.549805 -1.23555 -6.69991 52.2032 7.88855 4.7257 0.0 145.16 0.0 -46.8367 18.6053 -1.02813 0.0 0.0 0.0 0.0 0.0 0.0 -16.6 -27.2099 -21.2543 0.0 18.4328 0.0 -0.587785 3.3638 18.89 0.0 -12.4491005 0.0 4.55628 2.2989 371.666 0.0 39.6871 0.0 14.6253 5.58055 -4.93875 0.0 -44.5015 0.0 
